<svg width="116" height="116" viewBox="0 0 116 116" fill="none" xmlns="http://www.w3.org/2000/svg">
<ellipse cx="22" cy="95" rx="16" ry="15" fill="#D9D9D9"/>
<path d="M45.0527 75.2384C44.7103 74.7424 43.9493 73.8248 43.8985 73.7629C31.1795 60.0857 28.0219 52.1 27.3625 49.9796C27.1722 49.3968 26.627 49 25.9929 49C25.3715 49 24.8136 49.3968 24.6361 49.9796C23.964 52.0999 20.8064 60.0855 8.03661 73.8248C8.03661 73.8248 7.28846 74.7424 6.93334 75.2384C3.76313 79.6653 2.31747 85.1088 2.86267 90.5525C3.39528 95.8597 5.81735 100.634 9.45695 104.242C13.0963 107.838 17.9404 110.269 23.3553 110.851C24.2558 110.951 25.1434 111 26.0311 111C31.7629 111 37.1777 108.979 41.5019 105.197C46.4221 100.894 49.2501 94.7189 49.2501 88.2584C49.2501 83.5712 47.7916 79.07 45.0527 75.2384ZM24.07 104.514C16.433 103.688 10.1047 97.4196 9.35187 89.9335L11.8756 89.6902C12.5146 96.0361 17.8768 101.349 24.3499 102.048L24.07 104.514Z" fill="#597FAA"/>
<ellipse cx="53" cy="44" rx="16" ry="15" fill="#D9D9D9"/>
<path d="M75.0527 28.2384C74.7103 27.7424 73.9493 26.8248 73.8985 26.7629C61.1795 13.0857 58.0219 5.10003 57.3625 2.97956C57.1722 2.39683 56.627 2 55.9929 2C55.3715 2 54.8136 2.39683 54.6361 2.97956C53.964 5.0999 50.8064 13.0855 38.0366 26.8248C38.0366 26.8248 37.2885 27.7424 36.9333 28.2384C33.7631 32.6653 32.3175 38.1088 32.8627 43.5525C33.3953 48.8597 35.8174 53.6336 39.4569 57.2421C43.0963 60.8382 47.9404 63.2685 53.3553 63.8514C54.2558 63.9505 55.1434 64.0001 56.0311 64.0001C61.7629 64.0001 67.1777 61.979 71.5019 58.1969C76.4221 53.894 79.2501 47.7189 79.2501 41.2584C79.2501 36.5712 77.7916 32.07 75.0527 28.2384ZM54.07 57.5138C46.433 56.6879 40.1047 50.4196 39.3519 42.9335L41.8756 42.6902C42.5146 49.0361 47.8768 54.3491 54.3499 55.0485L54.07 57.5138Z" fill="#597FAA"/>
<ellipse cx="89" cy="85" rx="16" ry="15" fill="#D9D9D9"/>
<path d="M110.053 68.2384C109.71 67.7424 108.949 66.8248 108.899 66.7629C96.1795 53.0857 93.0219 45.1 92.3625 42.9796C92.1722 42.3968 91.627 42 90.9929 42C90.3715 42 89.8136 42.3968 89.6361 42.9796C88.964 45.0999 85.8064 53.0855 73.0366 66.8248C73.0366 66.8248 72.2885 67.7424 71.9333 68.2384C68.7631 72.6653 67.3175 78.1088 67.8627 83.5525C68.3953 88.8597 70.8174 93.6336 74.4569 97.2421C78.0963 100.838 82.9404 103.269 88.3553 103.851C89.2558 103.951 90.1434 104 91.0311 104C96.7629 104 102.178 101.979 106.502 98.1969C111.422 93.894 114.25 87.7189 114.25 81.2584C114.25 76.5712 112.792 72.07 110.053 68.2384ZM89.07 97.5138C81.433 96.6879 75.1047 90.4196 74.3519 82.9335L76.8756 82.6902C77.5146 89.0361 82.8768 94.3491 89.3499 95.0485L89.07 97.5138Z" fill="#597FAA"/>
</svg>
